<svg aria-hidden="true" style="position: absolute; width: 0; height: 0; overflow: hidden;" version="1.1" xmlns="http://www.w3.org/2000/svg" xmlns:xlink="http://www.w3.org/1999/xlink">
<defs>
<symbol id="icoback" viewBox="0 0 32 32">
<path d="M9.736 15.999l14.452-14.452c0.355-0.355 0.355-0.925 0-1.281s-0.925-0.355-1.281 0l-15.095 15.095c-0.355 0.355-0.355 0.925 0 1.281l15.095 15.089c0.174 0.174 0.409 0.268 0.637 0.268s0.463-0.087 0.637-0.268c0.355-0.355 0.355-0.925 0-1.281l-14.445-14.452z"></path>
</symbol>
<symbol id="icologo" viewBox="0 0 32 32">
<path d="M16 0.667c-8.84 0-16 7.040-16 15.723 0 6.948 4.584 12.84 10.94 14.917 0.8 0.148 1.093-0.339 1.093-0.756 0-0.373-0.013-1.363-0.020-2.673-4.451 0.948-5.389-2.109-5.389-2.109-0.728-1.815-1.78-2.3-1.78-2.3-1.449-0.975 0.112-0.955 0.112-0.955 1.607 0.109 2.451 1.62 2.451 1.62 1.427 2.404 3.745 1.709 4.66 1.308 0.144-1.017 0.556-1.709 1.013-2.103-3.553-0.393-7.288-1.745-7.288-7.769 0-1.716 0.62-3.119 1.647-4.219-0.18-0.397-0.72-1.996 0.14-4.161 0 0 1.34-0.421 4.4 1.612 1.28-0.349 2.64-0.523 4-0.531 1.36 0.008 2.72 0.181 4 0.531 3.040-2.033 4.38-1.612 4.38-1.612 0.86 2.165 0.32 3.764 0.16 4.161 1.020 1.1 1.64 2.503 1.64 4.219 0 6.040-3.74 7.369-7.3 7.756 0.56 0.472 1.080 1.436 1.080 2.909 0 2.104-0.020 3.795-0.020 4.305 0 0.412 0.28 0.904 1.1 0.747 6.401-2.064 10.981-7.96 10.981-14.897 0-8.683-7.164-15.723-16-15.723z"></path>
</symbol>
<symbol id="iconext" viewBox="0 0 32 32">
<path d="M24.191 15.362l-15.095-15.095c-0.355-0.355-0.925-0.355-1.281 0s-0.355 0.925 0 1.281l14.452 14.452-14.452 14.452c-0.355 0.355-0.355 0.925 0 1.281 0.174 0.174 0.409 0.268 0.637 0.268s0.463-0.087 0.637-0.268l15.095-15.095c0.355-0.349 0.355-0.925 0.007-1.274z"></path>
</symbol>
<symbol id="icoskype" viewBox="0 0 32 32">
<path d="M17.777 14.86l-2.2-0.488c-0.837-0.191-1.8-0.443-1.8-1.232 0-0.791 0.676-1.343 1.896-1.343 2.459 0 2.234 1.69 3.455 1.69 0.642 0 1.205-0.378 1.205-1.027 0-1.515-2.425-2.653-4.483-2.653-2.233 0-4.612 0.948-4.612 3.475 0 1.217 0.435 2.511 2.829 3.111l2.973 0.742c0.9 0.222 1.125 0.728 1.125 1.184 0 0.759-0.754 1.501-2.12 1.501-2.669 0-2.298-2.054-3.729-2.054-0.643 0-1.109 0.443-1.109 1.074 0 1.231 1.495 2.875 4.837 2.875 3.18 0 4.756-1.533 4.756-3.585 0-1.325-0.611-2.733-3.021-3.27z"></path>
<path d="M16 0c-8.835 0-16 7.165-16 16s7.165 16 16 16 16-7.165 16-16-7.165-16-16-16zM24.33 24.307c-1.052 1.052-2.45 1.631-3.937 1.631-0.963 0-1.907-0.25-2.74-0.722-0.541 0.096-1.095 0.146-1.647 0.146-1.27 0-2.502-0.249-3.662-0.74-1.121-0.473-2.127-1.152-2.991-2.016s-1.542-1.869-2.015-2.99c-0.491-1.16-0.74-2.392-0.74-3.662 0-0.544 0.049-1.089 0.142-1.622-0.457-0.822-0.701-1.753-0.701-2.7 0-1.488 0.58-2.886 1.631-3.938s2.451-1.632 3.938-1.632c0.911 0 1.812 0.227 2.612 0.653 0.001-0 0.003-0 0.004-0.001 0.584-0.112 1.183-0.168 1.781-0.168 1.27 0 2.502 0.249 3.661 0.739 1.12 0.474 2.127 1.152 2.99 2.016 0.864 0.864 1.542 1.87 2.016 2.99 0.491 1.16 0.74 2.392 0.74 3.662 0 0.572-0.054 1.146-0.157 1.705 0.46 0.826 0.705 1.76 0.705 2.71-0 1.488-0.579 2.886-1.631 3.938z"></path>
</symbol>
<symbol id="icoviber" viewBox="0 0 32 32">
<path d="M30.873 18.524c0.955-8.036-0.459-13.109-3.008-15.404l0.001-0.001c-4.115-3.919-18.011-4.499-22.933 0.176-2.211 2.287-2.989 5.643-3.075 9.797-0.085 4.156-0.187 11.941 7.068 14.053h0.007l-0.007 3.225s-0.049 1.307 0.785 1.569c0.955 0.309 1.387-0.297 4.356-3.844 4.965 0.431 8.779-0.556 9.212-0.7 1.003-0.336 6.676-1.087 7.593-8.872zM14.557 25.827s-3.143 3.919-4.12 4.936c-0.32 0.331-0.671 0.3-0.665-0.356 0-0.431 0.024-5.355 0.024-5.355-6.151-1.763-5.788-8.392-5.721-11.86 0.067-3.469 0.701-6.311 2.573-8.224 4.319-4.049 16.501-3.144 19.605-0.227 3.795 3.364 2.444 12.868 2.452 13.192-0.78 6.499-5.377 6.911-6.223 7.192-0.361 0.12-3.715 0.983-7.925 0.701z"></path>
<path d="M16.296 5.729c-0.513 0-0.513 0.8 0 0.807 3.983 0.031 7.263 2.807 7.299 7.899 0 0.537 0.787 0.531 0.78-0.007h-0.001c-0.043-5.487-3.624-8.668-8.077-8.699z"></path>
<path d="M21.535 13.591c-0.012 0.531 0.773 0.556 0.78 0.019 0.065-3.025-1.8-5.517-5.305-5.78-0.513-0.037-0.567 0.769-0.055 0.807 3.040 0.231 4.641 2.305 4.58 4.955z"></path>
<path d="M20.695 17.032c-0.659-0.381-1.329-0.144-1.607 0.231l-0.58 0.751c-0.295 0.381-0.845 0.331-0.845 0.331-4.019-1.063-5.093-5.268-5.093-5.268s-0.049-0.569 0.319-0.875l0.725-0.6c0.363-0.288 0.592-0.981 0.223-1.663-0.987-1.783-1.649-2.397-1.987-2.869-0.355-0.444-0.888-0.544-1.443-0.244h-0.012c-1.153 0.675-2.416 1.937-2.012 3.237 0.689 1.371 1.956 5.74 5.993 9.041 1.897 1.561 4.9 3.161 6.175 3.531l0.012 0.019c1.256 0.419 2.477-0.893 3.129-2.081v-0.009c0.289-0.575 0.193-1.119-0.229-1.475-0.749-0.731-1.88-1.537-2.768-2.056z"></path>
<path d="M17.559 10.805c1.281 0.075 1.903 0.744 1.969 2.119 0.024 0.537 0.804 0.5 0.78-0.037-0.085-1.795-1.021-2.795-2.707-2.888-0.513-0.031-0.561 0.776-0.043 0.807z"></path>
</symbol>
</defs>
</svg>
