<svg aria-hidden="true" style="position: absolute; width: 0; height: 0; overflow: hidden;" version="1.1" xmlns="http://www.w3.org/2000/svg" xmlns:xlink="http://www.w3.org/1999/xlink">
<defs>
<symbol id="css" viewBox="0 0 32 32">
<path fill="#2196f3" style="fill: var(--color1, #2196f3)" d="M2 0l2.55 28.8 11.45 3.2 11.446-3.198 2.554-28.802z"></path>
<path fill="#fafafa" style="fill: var(--color2, #fafafa)" d="M24.548 9.418l-0.322 3.618-0.972 10.846-7.26 2.008-7.25-2.008-0.506-5.672h3.552l0.264 2.942 3.944 1.062 3.948-1.064 0.538-4.902-12.416 0.034-0.352-3.352 13.066-0.154 0.264-3.588-13.68 0.038-0.23-3.338h17.728z"></path>
</symbol>
<symbol id="html-5" viewBox="0 0 32 32">

<path fill="#1b1e22" style="fill: var(--color3, #1b1e22) " d="M2 0l2.55 28.8 11.45 3.2 11.446-3.198 2.554-28.802z"></path>
<path fill="#fafafa" style="fill: var(--color2, #fafafa)" d="M24.47 9.418h-13.42l0.32 3.618h12.78l-0.962 10.848-7.194 2.008-7.184-2.008-0.502-5.674h3.52l0.262 2.944 3.91 1.060 3.91-1.062 0.408-4.582h-12.154l-0.948-10.682h17.566z"></path>
</symbol>
<symbol id="js" viewBox="0 0 32 32">
<path fill="#1b1e22"  style="fill: var(--color4, #1b1e22) " d="M0.531 31.469h30.937v-30.937h-30.937z"></path>
<path fill="#1b1e00" style="fill: var(--color5, #1b1e00)" d="M29.868 31.469h1.6v-30.937h-1.6z"></path>
<path fill="#fff" style="fill: var(--color6, #fff)" d="M0.531 31.469h1.6v-30.937h-1.6z"></path>
<path fill="#fff" style="fill: var(--color7, #fff)" d="M31.469 32h-30.937c-0.293 0-0.531-0.238-0.531-0.531v-30.937c0-0.293 0.238-0.531 0.531-0.531h30.937c0.293 0 0.531 0.238 0.531 0.531v30.937c0 0.293-0.238 0.531-0.531 0.531zM1.063 30.937h29.875v-29.875h-29.875v29.875z"></path>
<path fill="#fff" style="fill: var(--color7, #fff)" d="M24.534 29.333c-2.646 0-4.799-2.153-4.799-4.799 0-0.293 0.238-0.531 0.531-0.531s0.531 0.238 0.531 0.531c0 2.060 1.676 3.736 3.736 3.736s3.736-1.676 3.736-3.736-1.676-3.736-3.736-3.736c-2.646 0-4.799-2.153-4.799-4.799s2.153-4.799 4.799-4.799 4.799 2.153 4.799 4.799c0 0.293-0.238 0.531-0.531 0.531s-0.531-0.238-0.531-0.531c0-2.060-1.676-3.736-3.736-3.736s-3.736 1.676-3.736 3.736c0 2.060 1.676 3.736 3.736 3.736 2.646 0 4.799 2.153 4.799 4.799s-2.153 4.799-4.799 4.799z"></path>
<path fill="#fff" style="fill: var(--color7, #fff)" d="M13.333 29.333c-2.646 0-4.799-2.153-4.799-4.799 0-0.293 0.238-0.531 0.531-0.531s0.531 0.238 0.531 0.531c0 2.060 1.676 3.736 3.736 3.736s3.736-1.676 3.736-3.736v-12.802c0-0.293 0.238-0.531 0.531-0.531s0.531 0.238 0.531 0.531v12.802c-0 2.646-2.153 4.799-4.799 4.799z"></path>
</symbol>
<symbol id="react" viewBox="0 0 32 32">
<path fill="#1b1e22" style="fill: var(--color8, #1b1e22)" d="M32 16c0 5.271-2.55 9.947-6.482 12.863-1.646 1.22-3.535 2.132-5.58 2.649-1.26 0.319-2.578 0.488-3.937 0.488s-2.678-0.169-3.938-0.488c-2.045-0.517-3.934-1.429-5.58-2.649-3.933-2.915-6.482-7.591-6.482-12.862 0-8.837 7.163-16 16-16s16 7.163 16 16z"></path>
<path fill="#f2f2f2" style="fill: var(--color9, #f2f2f2)" d="M25.534 25.009c-0.075-0.503-0.174-1.022-0.297-1.552-0.108-0.466-0.234-0.94-0.377-1.422-0.376-1.266-0.872-2.581-1.473-3.91-0.263-0.581-0.547-1.165-0.849-1.748-0.266-0.514-0.547-1.029-0.843-1.54s-0.599-1.012-0.912-1.5c-0.353-0.553-0.717-1.090-1.089-1.608-0.85-1.185-1.742-2.273-2.65-3.231-0.345-0.365-0.694-0.711-1.043-1.037-0.398-0.372-0.797-0.718-1.196-1.034-2.605-2.068-4.937-2.689-6.568-1.748s-2.259 3.272-1.77 6.563c0.074 0.504 0.174 1.022 0.298 1.552 0.107 0.466 0.233 0.94 0.377 1.422 0.376 1.266 0.872 2.582 1.473 3.911 0.263 0.581 0.546 1.164 0.848 1.748 0.266 0.515 0.548 1.029 0.843 1.541s0.6 1.012 0.912 1.5c0.354 0.554 0.718 1.091 1.089 1.609 0.85 1.185 1.742 2.272 2.65 3.231 0.345 0.365 0.694 0.712 1.044 1.038 0.398 0.372 0.797 0.717 1.196 1.034 0.958 0.761 1.879 1.326 2.742 1.688 2.045-0.517 3.934-1.429 5.58-2.649 0.23-1.059 0.238-2.357 0.016-3.854zM24.067 28.625c-0.19 0.822-0.539 1.384-1.039 1.672s-1.161 0.31-1.968 0.064c-0.874-0.267-1.894-0.851-2.951-1.69-0.355-0.282-0.711-0.589-1.067-0.919-0.349-0.324-0.698-0.67-1.044-1.036-0.594-0.629-1.182-1.317-1.755-2.056-0.383-0.493-0.759-1.008-1.127-1.543-0.534-0.775-1.049-1.591-1.539-2.441s-0.94-1.703-1.344-2.553c-0.28-0.586-0.537-1.17-0.773-1.748-0.353-0.866-0.656-1.72-0.903-2.548-0.144-0.483-0.27-0.957-0.375-1.422-0.108-0.473-0.197-0.935-0.263-1.384-0.199-1.334-0.194-2.51 0.012-3.4 0.19-0.822 0.54-1.385 1.039-1.673 0.27-0.155 0.586-0.234 0.948-0.234 0.308 0 0.649 0.057 1.020 0.17 0.874 0.266 1.894 0.851 2.95 1.689 0.355 0.282 0.712 0.589 1.067 0.92 0.349 0.323 0.697 0.669 1.043 1.035 0.595 0.629 1.183 1.317 1.757 2.056 0.383 0.493 0.759 1.008 1.127 1.543 0.533 0.775 1.048 1.591 1.538 2.44s0.94 1.703 1.344 2.553c0.279 0.586 0.538 1.17 0.773 1.748 0.353 0.866 0.656 1.719 0.903 2.548 0.144 0.483 0.27 0.957 0.375 1.422 0.108 0.473 0.196 0.935 0.263 1.384 0.199 1.334 0.194 2.51-0.012 3.4z"></path>
<path fill="#f2f2f2" style="fill: var(--color9, #f2f2f2)" d="M26.73 13.31c-0.474-0.187-0.972-0.36-1.494-0.519-0.457-0.139-0.931-0.268-1.42-0.385-1.284-0.307-2.671-0.536-4.123-0.679-0.634-0.063-1.281-0.11-1.937-0.139-0.579-0.027-1.165-0.040-1.756-0.040s-1.178 0.014-1.757 0.040c-0.656 0.029-1.303 0.076-1.938 0.139-1.452 0.144-2.838 0.372-4.122 0.679-0.489 0.117-0.963 0.246-1.42 0.385-0.521 0.159-1.020 0.332-1.494 0.519-3.094 1.221-4.798 2.931-4.798 4.814s1.704 3.593 4.798 4.814c0.473 0.187 0.972 0.36 1.493 0.519 0.457 0.139 0.931 0.268 1.42 0.384 1.284 0.308 2.671 0.535 4.123 0.68 0.634 0.063 1.281 0.109 1.938 0.139 0.579 0.027 1.165 0.040 1.756 0.040s1.177-0.013 1.755-0.040c0.656-0.030 1.303-0.076 1.938-0.139 1.452-0.144 2.84-0.372 4.123-0.68 0.489-0.117 0.963-0.245 1.42-0.385 0.52-0.159 1.019-0.332 1.493-0.519 3.094-1.222 4.798-2.932 4.798-4.814s-1.704-3.592-4.798-4.814zM29.128 19.86c-0.667 0.624-1.684 1.215-2.938 1.71-0.422 0.166-0.867 0.322-1.33 0.464-0.455 0.14-0.929 0.269-1.418 0.385-0.842 0.201-1.732 0.365-2.659 0.492-0.618 0.086-1.252 0.154-1.899 0.204-0.938 0.075-1.903 0.113-2.883 0.113s-1.945-0.038-2.883-0.112c-0.647-0.051-1.282-0.119-1.9-0.205-0.927-0.127-1.817-0.292-2.659-0.492-0.49-0.116-0.963-0.245-1.418-0.385-0.464-0.142-0.908-0.298-1.33-0.464-1.255-0.496-2.271-1.087-2.938-1.71-0.616-0.575-0.929-1.159-0.929-1.736s0.313-1.16 0.929-1.736c0.667-0.624 1.684-1.215 2.938-1.71 0.423-0.166 0.867-0.322 1.33-0.464 0.455-0.14 0.929-0.269 1.418-0.385 0.842-0.2 1.732-0.365 2.659-0.492 0.618-0.086 1.253-0.154 1.9-0.205 0.938-0.074 1.903-0.112 2.883-0.112s1.945 0.038 2.883 0.113c0.647 0.050 1.281 0.119 1.899 0.204 0.927 0.127 1.817 0.292 2.659 0.492 0.49 0.116 0.963 0.245 1.418 0.385 0.464 0.142 0.908 0.298 1.33 0.464 1.255 0.496 2.271 1.087 2.938 1.71 0.616 0.575 0.929 1.159 0.929 1.736s-0.313 1.16-0.929 1.736z"></path>
<path fill="#f2f2f2" style="fill: var(--color9, #f2f2f2)" d="M23.764 4.676c-1.631-0.941-3.963-0.32-6.568 1.748-0.398 0.317-0.798 0.662-1.196 1.034-0.349 0.326-0.698 0.673-1.044 1.038-0.908 0.959-1.8 2.045-2.651 3.231-0.372 0.518-0.735 1.055-1.089 1.608-0.313 0.488-0.617 0.988-0.912 1.5s-0.577 1.026-0.843 1.541c-0.302 0.583-0.586 1.167-0.848 1.748-0.601 1.33-1.097 2.645-1.473 3.91-0.144 0.483-0.27 0.957-0.378 1.423-0.123 0.53-0.223 1.048-0.297 1.552-0.222 1.496-0.214 2.794 0.016 3.853 1.646 1.221 3.535 2.132 5.58 2.649 0.863-0.362 1.784-0.927 2.742-1.688 0.399-0.317 0.799-0.662 1.196-1.034 0.349-0.326 0.698-0.672 1.043-1.037 0.908-0.959 1.8-2.046 2.65-3.231 0.372-0.519 0.735-1.055 1.089-1.609 0.313-0.488 0.617-0.988 0.912-1.5s0.577-1.025 0.843-1.54c0.302-0.583 0.586-1.167 0.849-1.748 0.601-1.329 1.096-2.645 1.473-3.91 0.143-0.482 0.269-0.957 0.377-1.422 0.123-0.53 0.223-1.049 0.298-1.552 0.488-3.291-0.14-5.621-1.771-6.563zM23.441 13.828c-0.247 0.829-0.55 1.682-0.903 2.548-0.235 0.578-0.493 1.162-0.773 1.748-0.404 0.85-0.854 1.704-1.344 2.553s-1.005 1.665-1.538 2.44c-0.368 0.535-0.745 1.051-1.128 1.544-0.573 0.739-1.161 1.427-1.756 2.056-0.345 0.366-0.694 0.712-1.043 1.036-0.355 0.33-0.712 0.637-1.067 0.919-1.057 0.839-2.077 1.423-2.95 1.69-0.806 0.246-1.469 0.225-1.968-0.064s-0.849-0.851-1.039-1.672c-0.206-0.89-0.21-2.066-0.012-3.4 0.067-0.449 0.155-0.911 0.263-1.384 0.106-0.464 0.232-0.938 0.376-1.422 0.248-0.829 0.55-1.682 0.903-2.548 0.235-0.578 0.493-1.162 0.773-1.748 0.404-0.85 0.854-1.704 1.344-2.553s1.005-1.665 1.539-2.441c0.368-0.535 0.744-1.050 1.127-1.543 0.574-0.739 1.162-1.428 1.756-2.056 0.346-0.366 0.695-0.713 1.044-1.036 0.356-0.33 0.712-0.637 1.067-0.92 1.057-0.838 2.077-1.423 2.95-1.689 0.371-0.114 0.712-0.17 1.020-0.17 0.361 0 0.678 0.078 0.948 0.234 0.5 0.288 0.849 0.851 1.039 1.673 0.206 0.89 0.21 2.066 0.012 3.4-0.067 0.449-0.155 0.911-0.263 1.384-0.105 0.464-0.231 0.938-0.375 1.422z"></path>
<path fill="#f2f2f2" style="fill: var(--color9, #f2f2f2)" d="M18.919 18.124c0 1.612-1.307 2.919-2.919 2.919s-2.918-1.307-2.918-2.919c0-1.612 1.307-2.918 2.918-2.918s2.919 1.307 2.919 2.918z"></path>
</symbol>
<symbol id="sass" viewBox="0 0 32 32">
<path fill="#1b1e22" style="fill: var(--color9, #1b1e22)" d="M32 16c0 0.494-0.022 0.983-0.067 1.465-0.034 0.382-0.082 0.759-0.144 1.132-1.241 7.601-7.838 13.402-15.79 13.402-4.050 0-7.749-1.505-10.567-3.986-1.042-0.916-1.963-1.966-2.738-3.124-1.703-2.542-2.695-5.601-2.695-8.89 0-8.837 7.163-16 16-16s16 7.163 16 16z"></path>
<path fill="#f2f2f2" style="fill: var(--color10, #f2f2f2)" d="M27.923 17.811c-0.485 0.183-0.466 0.187-0.722-0.281-0.328-0.596-0.502-1.222-0.517-1.903-0.012-0.585 0.148-1.128 0.349-1.661 0.161-0.424-0.048-0.573-0.415-0.612-0.267-0.027-0.543-0.025-0.81 0.003-0.696 0.071-0.765 0.131-0.95 0.807-0.11 0.401-0.197 0.805-0.379 1.186-0.449 0.937-0.96 1.84-1.484 2.736-0.094 0.161-0.172 0.335-0.304 0.473-0.379-0.568-0.522-1.196-0.554-1.854-0.032-0.65 0.167-1.254 0.386-1.851 0.074-0.201 0.012-0.326-0.161-0.413-0.077-0.039-0.163-0.074-0.247-0.081-0.447-0.035-0.892-0.030-1.328 0.092-0.196 0.054-0.324 0.164-0.368 0.384-0.085 0.43-0.217 0.848-0.396 1.251-0.496 1.114-0.989 2.23-1.485 3.345-0.431 0.968-0.855 1.94-1.366 2.87-0.036 0.066-0.066 0.18-0.156 0.157-0.091-0.023-0.059-0.135-0.063-0.212-0.029-0.549 0.12-1.072 0.247-1.595 0.202-0.829 0.422-1.654 0.637-2.48 0.061-0.237-0.042-0.396-0.238-0.51-0.283-0.163-0.564-0.17-0.87 0.057 0.042-0.337 0.060-0.633 0.046-0.929-0.033-0.66-0.338-1.089-0.87-1.188-0.389-0.072-0.756 0.040-1.104 0.205-0.81 0.383-1.461 0.961-2.008 1.663-0.064 0.082-0.129 0.157-0.221 0.207-1.027 0.56-2.054 1.119-3.079 1.684-0.112 0.063-0.185 0.045-0.266-0.042-0.516-0.553-1.115-1.010-1.708-1.473-0.829-0.648-1.686-1.262-2.401-2.043-0.418-0.457-0.767-0.958-0.941-1.563-0.285-0.989-0.072-1.91 0.402-2.785 0.561-1.035 1.393-1.834 2.311-2.546 1.457-1.13 3.055-2.027 4.739-2.766 1.886-0.826 3.843-1.358 5.927-1.278 0.826 0.032 1.627 0.175 2.362 0.579 0.52 0.286 0.865 0.699 0.963 1.306 0.114 0.71-0.056 1.367-0.372 1.989-0.705 1.39-1.825 2.375-3.148 3.146-1.102 0.642-2.292 1.050-3.55 1.263-0.695 0.118-1.394 0.189-2.093 0.083-0.803-0.122-1.544-0.39-2.094-1.037-0.063-0.074-0.144-0.126-0.251-0.074-0.11 0.054-0.102 0.152-0.091 0.246 0.008 0.065 0.025 0.13 0.048 0.191 0.147 0.396 0.422 0.695 0.744 0.957 0.837 0.681 1.829 0.881 2.871 0.901 1.019 0.020 2.023-0.109 3.017-0.347 2.241-0.536 4.118-1.635 5.488-3.518 0.819-1.126 1.337-2.367 1.292-3.786-0.029-0.901-0.332-1.696-0.989-2.342-0.78-0.767-1.749-1.153-2.788-1.385-1.157-0.257-2.326-0.294-3.507-0.153-1.027 0.123-2.031 0.333-3.008 0.669-1.495 0.515-2.939 1.148-4.321 1.917-1.416 0.788-2.75 1.689-3.92 2.819-1.036 1-1.926 2.103-2.427 3.472-0.214 0.586-0.368 1.189-0.225 1.823 0.184 0.816 0.586 1.523 1.115 2.16 0.8 0.965 1.782 1.725 2.794 2.452 0.813 0.584 1.664 1.115 2.445 1.743 0.221 0.178 0.22 0.178-0.040 0.314-0.304 0.159-0.612 0.311-0.911 0.481-1.206 0.682-2.372 1.421-3.323 2.448-0.468 0.506-0.786 1.074-0.934 1.705 0.775 1.157 1.696 2.207 2.738 3.124 1.777-0.138 3.137-1.063 4.142-2.593 0.485-0.739 0.713-1.575 0.798-2.456 0.075-0.777-0.004-1.529-0.232-2.271-0.040-0.131-0.188-0.261-0.13-0.375 0.054-0.106 0.217-0.159 0.338-0.229 0.485-0.282 0.97-0.559 1.469-0.846 0.022 0.107-0.020 0.17-0.039 0.238-0.286 1.049-0.485 2.107-0.268 3.198 0.135 0.679 0.361 1.319 0.789 1.881 0.441 0.579 1.425 0.513 1.825-0.016 0.379-0.502 0.631-1.067 0.893-1.63 0.144-0.308 0.276-0.622 0.413-0.933-0.025 0.375-0.024 0.741-0.010 1.105 0.014 0.359 0.071 0.714 0.258 1.031 0.225 0.381 0.647 0.492 1.040 0.289 0.414-0.215 0.696-0.569 0.916-0.953 0.941-1.652 1.814-3.338 2.537-5.1 0.154-0.374 0.312-0.748 0.487-1.164 0.027 0.137 0.044 0.22 0.061 0.304 0.161 0.839 0.447 1.633 0.861 2.38 0.089 0.16 0.079 0.27-0.033 0.424-0.381 0.519-0.799 1.008-1.211 1.501-0.346 0.415-0.716 0.812-1.009 1.27-0.262 0.411-0.112 0.833 0.325 0.926 0.134 0.029 0.276 0.037 0.414 0.035 0.763-0.009 1.468-0.237 2.124-0.611 0.884-0.503 1.407-1.241 1.383-2.292-0.011-0.478-0.14-0.937-0.333-1.375-0.042-0.097-0.044-0.168 0.019-0.259 0.612-0.876 1.153-1.795 1.65-2.741 0.088-0.166 0.15-0.351 0.293-0.514 0.019 0.066 0.034 0.107 0.042 0.15 0.158 0.784 0.371 1.55 0.771 2.249 0.11 0.191 0.055 0.289-0.097 0.417-0.522 0.443-0.962 0.961-1.307 1.553-0.269 0.461-0.453 0.953-0.451 1.494 0.002 0.601 0.462 0.955 1.047 0.814 0.611-0.146 1.177-0.395 1.685-0.767 1.107-0.81 1.431-1.665 1.085-2.858-0.136-0.47-0.133-0.462 0.338-0.604 1.030-0.311 2.075-0.324 3.125-0.153 0.119 0.020 0.236 0.042 0.353 0.067 0.061-0.373 0.11-0.75 0.144-1.132-1.343-0.328-2.685-0.158-4.011 0.346zM6.162 26.213c-0.298 0.106-0.609 0.151-0.926 0.126-0.395-0.031-0.646-0.31-0.671-0.73-0.029-0.483 0.114-0.919 0.326-1.344 0.385-0.771 1.030-1.294 1.689-1.807 0.641-0.5 1.329-0.926 2.025-1.341 0.211-0.125 0.214-0.124 0.262 0.127 0.063 0.323 0.119 0.646 0.098 0.939 0.055 1.759-1.222 3.469-2.803 4.029zM15.747 17.345c-0.111 0.741-0.353 1.447-0.611 2.145-0.351 0.952-0.694 1.909-1.136 2.825-0.101 0.211-0.208 0.421-0.372 0.592-0.155 0.163-0.292 0.144-0.399-0.055-0.209-0.388-0.183-0.82-0.217-1.133 0.010-1.573 0.537-2.858 1.407-4.013 0.243-0.322 0.553-0.584 0.964-0.689 0.279-0.071 0.407 0.041 0.364 0.329zM21.834 22c-0.298 0.515-0.727 0.889-1.253 1.155-0.056 0.028-0.129 0.078-0.18 0.012-0.048-0.062 0.029-0.103 0.065-0.142 0.523-0.571 1.040-1.147 1.505-1.767 0.007-0.010 0.025-0.011 0.065-0.028-0.005 0.287-0.067 0.539-0.202 0.771zM25.446 21.978c-0.078 0.037-0.168 0.105-0.244 0.046-0.084-0.065-0.050-0.179-0.025-0.266 0.119-0.399 0.279-0.781 0.5-1.137 0.185-0.3 0.415-0.562 0.668-0.806 0.102-0.098 0.148-0.086 0.182 0.055 0.036 0.144 0.039 0.289 0.042 0.436-0.006 0.804-0.415 1.339-1.123 1.672z"></path>
</symbol>
</defs>
</svg>
